<svg xmlns="http://www.w3.org/2000/svg" width="128" height="128" viewBox="0 0 32 32"><path fill="currentColor" d="M32 26v-2h-2.1a5 5 0 0 0-.73-1.75l1.49-1.49l-1.41-1.41l-1.49 1.49A5 5 0 0 0 26 20.1V18h-2v2.1a5 5 0 0 0-1.75.73l-1.49-1.49l-1.41 1.41l1.49 1.49A5 5 0 0 0 20.1 24H18v2h2.1a5 5 0 0 0 .73 1.75l-1.49 1.49l1.41 1.41l1.49-1.49a5 5 0 0 0 1.76.74V32h2v-2.1a5 5 0 0 0 1.75-.73l1.49 1.49l1.41-1.41l-1.49-1.49A5 5 0 0 0 29.9 26zm-7 2a3 3 0 1 1 0-6a3 3 0 0 1 0 6"/><path fill="currentColor" d="M25.71 24.29a1 1 0 0 0-1.09-.21a1.2 1.2 0 0 0-.33.21a.9.9 0 0 0-.21.33a1 1 0 0 0 1.3 1.3a1.2 1.2 0 0 0 .33-.21a1 1 0 0 0 .21-1.09a.9.9 0 0 0-.21-.33"/><path fill="currentColor" d="M5 6h16v2H5zm0 6h16v2H5zm0 6h10v2H5zm0 6h8v2H5z" class="ouiIcon__fillSecondary"/><path fill="currentColor" d="M16 32H3a3 3 0 0 1-3-3V3a3 3 0 0 1 3-3h20a3 3 0 0 1 3 3v13h-2V3a1 1 0 0 0-1-1H3a1 1 0 0 0-1 1v26a1 1 0 0 0 1 1h13z"/></svg>